<svg xmlns="http://www.w3.org/2000/svg" version="1.1" xmlns:xlink="http://www.w3.org/1999/xlink" xmlns:svgjs="http://svgjs.dev/svgjs" width="1500" height="1500" viewBox="0 0 1500 1500"><rect width="1500" height="1500" fill="#ffffff"></rect><g transform="matrix(0.6666666666666666,0,0,0.6666666666666666,249.39393939393932,582.8973194737899)"><svg viewBox="0 0 396 132" data-background-color="#ffffff" preserveAspectRatio="xMidYMid meet" height="500" width="1500" xmlns="http://www.w3.org/2000/svg" xmlns:xlink="http://www.w3.org/1999/xlink"><g id="tight-bounds" transform="matrix(1,0,0,1,0.24000000000003752,0.17266148837921946)"><svg viewBox="0 0 395.5199999999999 131.6540181192595" height="131.6540181192595" width="395.5199999999999"><g><svg viewBox="0 0 395.5199999999999 131.6540181192595" height="131.6540181192595" width="395.5199999999999"><g transform="matrix(1,0,0,1,0,67.78758468497743)"><svg viewBox="0 0 395.5199999999999 63.86643343428207" height="63.86643343428207" width="395.5199999999999"><g id="textblocktransform"><svg viewBox="0 0 395.5199999999999 63.86643343428207" height="63.86643343428207" width="395.5199999999999" id="textblock"><g><svg viewBox="0 0 395.5199999999999 63.86643343428207" height="63.86643343428207" width="395.5199999999999"><g transform="matrix(1,0,0,1,0,0)"><svg width="395.5199999999999" viewBox="1.63087 -20.54235 294.1320696970315 47.49486" height="63.86643343428207" data-palette-color="#248dff"><path d="M1.631 12.852l6.006-33.394 8.582 1.543c6.679 1.201 10.533 4.783 11.56 10.746v0c0.402 2.172 0.304 4.921-0.294 8.248-0.597 3.32-1.468 6.052-2.612 8.197-1.138 2.146-2.49 3.732-4.056 4.757-1.561 1.033-3.33 1.603-5.307 1.708-1.97 0.106-4.133-0.052-6.488-0.476v0zM15.51-16.413l-5.108-0.919-5.06 28.138 3.917 0.705c1.653 0.297 3.27 0.442 4.849 0.435v0c5.246 0.022 8.638-4.245 10.177-12.801v0c0.864-4.803 0.389-8.549-1.423-11.239v0c-1.594-2.285-4.045-3.725-7.352-4.319zM33.572 6.189l-0.11 0.762c-0.814 5.628 1.464 8.831 6.835 9.607v0c2.27 0.328 4.392 0.325 6.367-0.008v0c0.505-0.089 0.86-0.169 1.065-0.24v0l0.355 2.648c-1.219 0.511-3.321 0.698-6.306 0.563v0c-0.84-0.061-1.725-0.159-2.655-0.294v0c-2.685-0.388-4.825-1.382-6.42-2.979v0c-2.198-2.177-2.989-5.393-2.373-9.649 0.616-4.256 2.197-7.365 4.744-9.327 2.555-1.968 5.416-2.723 8.583-2.265 3.167 0.458 5.401 1.825 6.702 4.102v0c0.985 1.806 1.283 4.055 0.893 6.747v0c-0.093 0.64-0.222 1.305-0.39 1.995v0l-17.122-2.477c-0.07 0.253-0.126 0.524-0.168 0.815zM43.424-1.985v0c-1.986-0.287-3.768 0.065-5.346 1.055-1.579 0.998-2.779 2.4-3.6 4.208v0l13.965 2.02c0.349-3.574-0.729-5.834-3.232-6.782v0c-0.551-0.241-1.147-0.408-1.787-0.501zM70.189-0.982l-1.59 2.743c-0.482-0.352-1.011-0.562-1.588-0.629-0.576-0.068-0.899-0.089-0.969-0.063v0c-1.218-0.143-2.498 0.153-3.84 0.888-1.336 0.743-2.501 1.606-3.495 2.591v0l-1.972 16.805-3.128-0.368 2.824-24.074 3.157 0.128-0.633 5.393c1.362-1.371 2.496-2.312 3.402-2.823v0c1.678-0.971 3.226-1.407 4.644-1.307v0c0.196-0.011 0.552 0.014 1.069 0.075 0.51 0.06 1.216 0.274 2.119 0.641zM73.504-1.168l3.158 0.082-2.497 24.353-3.133-0.322zM75.609-7.476c-0.643-0.066-1.113-0.325-1.408-0.778-0.295-0.452-0.41-1-0.344-1.644 0.066-0.643 0.305-1.148 0.718-1.514 0.412-0.36 0.94-0.507 1.583-0.441 0.643 0.066 1.143 0.318 1.501 0.757 0.363 0.446 0.508 1.024 0.435 1.733-0.072 0.703-0.345 1.211-0.82 1.525-0.467 0.307-1.022 0.428-1.665 0.362zM83.355 4.693l-0.684-2.392c3.654-1.463 6.803-2.136 9.449-2.02v0c2.093 0.166 3.691 0.56 4.792 1.182 1.101 0.622 1.969 1.437 2.605 2.443 0.636 1.007 0.886 2.364 0.751 4.072v0l-1.369 17.296-3.15-0.25 0.145-1.834c-4.52 1-7.408 1.45-8.663 1.351v0c-0.06-0.005-0.106-0.008-0.14-0.011v0c-2.898-0.229-4.808-1.27-5.732-3.122v0c-0.341-0.676-0.511-1.321-0.508-1.937 0.002-0.615 0.019-1.132 0.052-1.55v0c0.092-1.163 0.626-2.167 1.603-3.013 0.97-0.846 2.096-1.382 3.377-1.609v0c2.17-0.377 5.783-0.575 10.841-0.596v0l0.31-3.918c0.278-3.509-1.418-5.409-5.086-5.699v0c-2.579-0.204-5.443 0.332-8.593 1.607zM83.824 18.533v0c-0.184 2.319 1.316 3.605 4.5 3.857v0c2.545 0.201 5.117-0.143 7.715-1.034v0l0.548-6.919c-5.081 0.313-8.231 0.616-9.451 0.907v0c-2.078 0.484-3.182 1.547-3.312 3.189zM108.473 1.253l-0.148 2.906c2.507-1.655 4.845-2.474 7.014-2.457v0c1.971 0.1 3.477 0.42 4.517 0.96 1.041 0.533 1.885 1.264 2.532 2.191 0.647 0.921 0.93 2.187 0.848 3.798v0l-0.904 17.817-3.146-0.16 0.862-16.988c0.061-1.198-0.149-2.134-0.628-2.805v0c-0.978-1.245-2.529-1.921-4.653-2.029v0c-2.042-0.004-4.223 0.55-6.543 1.66v0l-0.993 19.555-3.146-0.16 1.23-24.208zM129.827 7.334l-0.825-2.346c3.56-1.678 6.664-2.538 9.312-2.58v0c2.1 0.041 3.717 0.339 4.854 0.894 1.136 0.555 2.052 1.317 2.746 2.284 0.695 0.967 1.025 2.307 0.992 4.02v0l-0.337 17.347-3.159-0.062 0.036-1.839c-4.452 1.267-7.308 1.889-8.568 1.864v0c-0.06-0.001-0.107-0.002-0.14-0.003v0c-2.906-0.056-4.875-0.981-5.907-2.775v0c-0.381-0.654-0.588-1.288-0.624-1.903-0.035-0.614-0.048-1.131-0.039-1.551v0c0.023-1.166 0.496-2.201 1.42-3.103 0.918-0.902 2.01-1.505 3.276-1.806v0c2.144-0.505 5.739-0.919 10.786-1.241v0l0.076-3.93c0.068-3.519-1.737-5.315-5.416-5.386v0c-2.586-0.05-5.414 0.655-8.483 2.116zM131.12 21.122v0c-0.045 2.326 1.529 3.52 4.721 3.582v0c2.553 0.05 5.1-0.448 7.64-1.492v0l0.135-6.939c-5.053 0.615-8.18 1.105-9.38 1.469v0c-2.046 0.607-3.084 1.734-3.116 3.38zM170.212 26.603l-3.048 0.109-1.209-33.909 3.298-0.118 13.326 24.361 11.568-25.248 3.298-0.118 1.209 33.909-3.058 0.109-1.009-28.292-10.261 22.34-3.287 0.117-11.836-21.552zM204.733 18.872v0c-0.706-1.503-1.14-3.284-1.302-5.344v0c-0.311-3.968 0.558-7.172 2.608-9.613 2.042-2.447 4.738-3.802 8.087-4.064v0c5.251-0.411 8.867 1.445 10.848 5.57v0c0.733 1.501 1.18 3.281 1.341 5.341v0c0.31 3.961-0.559 7.166-2.607 9.613-2.042 2.44-4.738 3.792-8.088 4.054v0c-5.251 0.411-8.88-1.441-10.887-5.557zM206.545 12.943c0.232 2.964 1.179 5.197 2.842 6.698 1.656 1.509 3.691 2.168 6.103 1.98 2.419-0.189 4.366-1.208 5.839-3.056 1.48-1.848 2.104-4.254 1.872-7.218-0.232-2.964-1.17-5.201-2.812-6.711-1.643-1.51-3.681-2.169-6.113-1.978-2.433 0.191-4.386 1.209-5.86 3.057-1.48 1.855-2.103 4.264-1.871 7.228zM242.862-2.24l-0.945 3.027c-0.548-0.237-1.111-0.324-1.688-0.263-0.577 0.061-0.896 0.112-0.959 0.152v0c-1.22 0.13-2.403 0.701-3.549 1.715-1.139 1.019-2.084 2.119-2.837 3.298v0l1.79 16.826-3.132 0.333-2.564-24.104 3.107-0.572 0.574 5.399c1.026-1.638 1.924-2.806 2.695-3.504v0c1.422-1.318 2.835-2.085 4.24-2.302v0c0.189-0.054 0.542-0.108 1.059-0.162 0.51-0.054 1.247-0.002 2.209 0.157zM246.236 1.779l-1.165-2.197c3.271-2.189 6.212-3.501 8.825-3.937v0c2.082-0.272 3.727-0.218 4.932 0.163 1.206 0.38 2.225 0.997 3.056 1.849 0.831 0.853 1.357 2.129 1.579 3.828v0l2.248 17.204-3.134 0.409-0.238-1.824c-4.214 1.915-6.946 2.955-8.195 3.118v0c-0.059 0.008-0.106 0.014-0.139 0.018v0c-2.882 0.377-4.967-0.245-6.255-1.866v0c-0.474-0.59-0.774-1.186-0.899-1.788-0.126-0.602-0.216-1.111-0.27-1.528v0c-0.151-1.157 0.163-2.25 0.943-3.28 0.773-1.029 1.763-1.787 2.97-2.274v0c2.045-0.818 5.538-1.762 10.482-2.832v0l-0.509-3.896c-0.456-3.49-2.509-4.997-6.158-4.521v0c-2.565 0.335-5.256 1.453-8.073 3.354zM249.565 15.221v0c0.301 2.307 2.035 3.254 5.202 2.84v0c2.532-0.331 4.976-1.201 7.333-2.612v0l-0.899-6.881c-4.905 1.36-7.924 2.309-9.057 2.847v0c-1.932 0.905-2.792 2.173-2.579 3.806zM268.138-6.204l3.079-0.706 3.642 24.208-3.115 0.468zM268.607-12.838c-0.639 0.096-1.159-0.038-1.557-0.403-0.399-0.365-0.646-0.867-0.743-1.506-0.096-0.639 0.01-1.188 0.319-1.646 0.31-0.451 0.784-0.725 1.424-0.821 0.639-0.096 1.187 0.024 1.642 0.36 0.463 0.342 0.747 0.865 0.853 1.571 0.105 0.699-0.033 1.259-0.415 1.68-0.376 0.414-0.884 0.669-1.523 0.765zM291.489-9.63l-0.309 2.803c-1.209-0.184-2.802-0.107-4.78 0.234-1.971 0.339-3.438 0.953-4.401 1.842-0.964 0.883-1.357 1.843-1.179 2.882 0.179 1.038 0.627 1.739 1.346 2.102 0.72 0.37 1.588 0.64 2.605 0.81 1.01 0.171 2.108 0.317 3.292 0.438 1.185 0.128 2.301 0.362 3.348 0.703v0c2.425 0.767 3.832 2.28 4.22 4.54 0.389 2.26-0.085 4.127-1.42 5.602-1.336 1.475-3.486 2.467-6.449 2.977v0c-1.498 0.258-2.966 0.355-4.405 0.291-1.438-0.064-2.568-0.302-3.39-0.716v0l0.619-2.714c0.839 0.512 2.397 0.721 4.674 0.626v0c0.719-0.029 1.443-0.106 2.172-0.231v0c1.656-0.285 2.983-0.865 3.983-1.741 0.999-0.875 1.378-2.016 1.136-3.422v0c-0.164-0.953-0.611-1.644-1.341-2.072-0.731-0.436-1.608-0.755-2.63-0.958-1.015-0.197-2.112-0.344-3.292-0.439-1.18-0.095-2.286-0.29-3.318-0.586-1.038-0.295-1.941-0.762-2.707-1.401-0.766-0.639-1.259-1.596-1.478-2.871v0c-0.356-2.07 0.157-3.863 1.541-5.379 1.376-1.515 3.402-2.503 6.075-2.963v0c0.67-0.115 1.364-0.194 2.08-0.236 0.71-0.041 1.356-0.078 1.94-0.11v0z" opacity="1" transform="matrix(1,0,0,1,0,0)" fill="#248dff" class="wordmark-text-0" data-fill-palette-color="primary" id="text-0"></path></svg></g></svg></g></svg></g></svg></g><g transform="matrix(1,0,0,1,156.7030070779615,0)"><svg viewBox="0 0 82.11398584407695 63.86643343428207" height="63.86643343428207" width="82.11398584407695"><g><svg xmlns:x="http://ns.adobe.com/Extensibility/1.0/" xmlns:i="http://ns.adobe.com/AdobeIllustrator/10.0/" xmlns:graph="http://ns.adobe.com/Graphs/1.0/" xmlns="http://www.w3.org/2000/svg" xmlns:xlink="http://www.w3.org/1999/xlink" version="1.1" x="0" y="0" viewBox="5 11 54 42" enable-background="new 0 0 64 64" xml:space="preserve" height="63.86643343428207" width="82.11398584407695" class="icon-icon-0" data-fill-palette-color="accent" id="icon-0"><g fill="#248dff" data-fill-palette-color="accent"><g fill="#248dff" data-fill-palette-color="accent"><path d="M58 11H6c-0.552 0-1 0.448-1 1v32c0 0.553 0.448 1 1 1h25v6h-7c-0.552 0-1 0.447-1 1s0.448 1 1 1h16c0.553 0 1-0.447 1-1s-0.447-1-1-1h-7v-6h25c0.553 0 1-0.447 1-1V12C59 11.448 58.553 11 58 11zM57 43H7V13h50V43z" fill="#248dff" data-fill-palette-color="accent"></path><path d="M10 41h44c0.553 0 1-0.447 1-1V16c0-0.552-0.447-1-1-1H10c-0.552 0-1 0.448-1 1v24C9 40.553 9.448 41 10 41zM11 17h42v22H11V17z" fill="#248dff" data-fill-palette-color="accent"></path><path d="M26.707 25.293c-0.391-0.391-1.023-0.391-1.414 0l-2 2c-0.391 0.391-0.391 1.023 0 1.414l2 2C25.488 30.902 25.744 31 26 31s0.512-0.098 0.707-0.293c0.391-0.391 0.391-1.023 0-1.414L25.414 28l1.293-1.293C27.098 26.316 27.098 25.684 26.707 25.293z" fill="#248dff" data-fill-palette-color="accent"></path><path d="M38.707 25.293c-0.391-0.391-1.023-0.391-1.414 0s-0.391 1.023 0 1.414L38.586 28l-1.293 1.293c-0.391 0.391-0.391 1.023 0 1.414C37.488 30.902 37.744 31 38 31s0.512-0.098 0.707-0.293l2-2c0.391-0.391 0.391-1.023 0-1.414L38.707 25.293z" fill="#248dff" data-fill-palette-color="accent"></path><path d="M34.447 23.105c-0.494-0.247-1.094-0.047-1.342 0.447l-4 8c-0.247 0.494-0.047 1.095 0.447 1.342C29.696 32.966 29.849 33 29.999 33c0.367 0 0.72-0.202 0.896-0.553l4-8C35.142 23.953 34.941 23.353 34.447 23.105z" fill="#248dff" data-fill-palette-color="accent"></path></g></g></svg><g></g></g></svg></g><g></g></svg></g><defs></defs></svg><rect width="395.5199999999999" height="131.6540181192595" fill="none" stroke="none" visibility="hidden"></rect></g></svg></g></svg>