<svg xmlns="http://www.w3.org/2000/svg" version="1.1" xmlns:xlink="http://www.w3.org/1999/xlink" xmlns:svgjs="http://svgjs.dev/svgjs" width="128" height="128" viewBox="0 0 128 128"><g transform="matrix(0.8046875,0,0,0.8046875,12.760752631578946,24.309533942145272)"><svg viewBox="0 0 95 74" data-background-color="#ffffff" preserveAspectRatio="xMidYMid meet" height="99" width="128" xmlns="http://www.w3.org/2000/svg" xmlns:xlink="http://www.w3.org/1999/xlink"><g id="tight-bounds" transform="matrix(1,0,0,1,-0.24049999999999727,-0.13150000000000261)"><svg viewBox="0 0 95.481 74.263" height="74.263" width="95.481"><g><svg viewBox="0 0 95.481 74.263" height="74.263" width="95.481"><g><svg viewBox="0 0 95.481 74.263" height="74.263" width="95.481"><g id="textblocktransform"><svg viewBox="0 0 95.481 74.263" height="74.263" width="95.481" id="textblock"><g><svg viewBox="0 0 95.481 74.263" height="74.263" width="95.481"><g><svg viewBox="0 0 95.481 74.263" height="74.263" width="95.481"><g><svg xmlns:x="http://ns.adobe.com/Extensibility/1.0/" xmlns:i="http://ns.adobe.com/AdobeIllustrator/10.0/" xmlns:graph="http://ns.adobe.com/Graphs/1.0/" xmlns="http://www.w3.org/2000/svg" xmlns:xlink="http://www.w3.org/1999/xlink" version="1.1" x="0" y="0" viewBox="5 11 54 42" enable-background="new 0 0 64 64" xml:space="preserve" height="74.263" width="95.481" class="icon-icon-0" data-fill-palette-color="accent" id="icon-0"><g fill="#248dff" data-fill-palette-color="accent"><g fill="#248dff" data-fill-palette-color="accent"><path d="M58 11H6c-0.552 0-1 0.448-1 1v32c0 0.553 0.448 1 1 1h25v6h-7c-0.552 0-1 0.447-1 1s0.448 1 1 1h16c0.553 0 1-0.447 1-1s-0.447-1-1-1h-7v-6h25c0.553 0 1-0.447 1-1V12C59 11.448 58.553 11 58 11zM57 43H7V13h50V43z" fill="#000000" data-fill-palette-color="accent"></path><path d="M10 41h44c0.553 0 1-0.447 1-1V16c0-0.552-0.447-1-1-1H10c-0.552 0-1 0.448-1 1v24C9 40.553 9.448 41 10 41zM11 17h42v22H11V17z" fill="#000000" data-fill-palette-color="accent"></path><path d="M26.707 25.293c-0.391-0.391-1.023-0.391-1.414 0l-2 2c-0.391 0.391-0.391 1.023 0 1.414l2 2C25.488 30.902 25.744 31 26 31s0.512-0.098 0.707-0.293c0.391-0.391 0.391-1.023 0-1.414L25.414 28l1.293-1.293C27.098 26.316 27.098 25.684 26.707 25.293z" fill="#000000" data-fill-palette-color="accent"></path><path d="M38.707 25.293c-0.391-0.391-1.023-0.391-1.414 0s-0.391 1.023 0 1.414L38.586 28l-1.293 1.293c-0.391 0.391-0.391 1.023 0 1.414C37.488 30.902 37.744 31 38 31s0.512-0.098 0.707-0.293l2-2c0.391-0.391 0.391-1.023 0-1.414L38.707 25.293z" fill="#000000" data-fill-palette-color="accent"></path><path d="M34.447 23.105c-0.494-0.247-1.094-0.047-1.342 0.447l-4 8c-0.247 0.494-0.047 1.095 0.447 1.342C29.696 32.966 29.849 33 29.999 33c0.367 0 0.72-0.202 0.896-0.553l4-8C35.142 23.953 34.941 23.353 34.447 23.105z" fill="#000000" data-fill-palette-color="accent"></path></g></g></svg><g></g></g></svg></g></svg></g></svg></g></svg></g><g></g></svg></g><defs></defs></svg><rect width="95.481" height="74.263" fill="none" stroke="none" visibility="hidden"></rect></g></svg></g></svg>